<?xml version="1.0" encoding="UTF-8" standalone="no"?>
<!DOCTYPE svg PUBLIC "-//W3C//DTD SVG 1.1//EN" "http://www.w3.org/Graphics/SVG/1.1/DTD/svg11.dtd">
<!-- Created with Vectornator (http://vectornator.io/) -->
<svg height="100%" stroke-miterlimit="10" style="fill-rule:nonzero;clip-rule:evenodd;stroke-linecap:round;stroke-linejoin:round;" version="1.1" viewBox="0 0 841.995 595.35" width="100%" xml:space="preserve" xmlns="http://www.w3.org/2000/svg" xmlns:vectornator="http://vectornator.io" xmlns:xlink="http://www.w3.org/1999/xlink">
<defs>
<linearGradient gradientTransform="matrix(1 0 0 1 0 0)" gradientUnits="userSpaceOnUse" id="LinearGradient" x1="65.4688" x2="66.2188" y1="-12.625" y2="-12.625">
<stop offset="0" stop-color="#1c1c1f"/>
<stop offset="0" stop-color="#3e68ff"/>
<stop offset="1" stop-color="#140404" stop-opacity="0"/>
</linearGradient>
<linearGradient gradientTransform="matrix(1 0 0 1 22.2568 -1.8756)" gradientUnits="userSpaceOnUse" id="LinearGradient_2" x1="-52.396" x2="810.237" y1="324.832" y2="324.832">
<stop offset="0" stop-color="#1c1c1f"/>
<stop offset="0" stop-color="#3e68ff"/>
<stop offset="1" stop-color="#140404" stop-opacity="0"/>
</linearGradient>
</defs>
<clipPath id="ArtboardFrame">
<rect height="595.35" width="841.995" x="0" y="0"/>
</clipPath>
<g clip-path="url(#ArtboardFrame)" id="레이어-1" vectornator:layerName="레이어 1">
<path d="M65.5625-17.3125C65.528-13.8495 65.4951-11.0966 65.4688-8.28125C65.7479-8.21268 65.9511-8.02783 66.2188-7.9375C66.1037-10.6973 66.0956-13.0889 66-15.6875C65.8119-16.3544 65.7715-16.5752 65.5625-17.3125Z" fill="url(#LinearGradient)" fill-rule="nonzero" opacity="1" stroke="#3e68ff" stroke-linecap="butt" stroke-linejoin="round" stroke-width="8.69485"/>
<path d="M-35.6798 157.72C-36.0966 157.303-38.8855 98.9098-38.8058 98.3258C-37.6019 89.4973-40.5532 64.5493-38.8058 55.8122C-37.8855 51.2104-18.8175-2.76031-6.92061 5.17096C3.69015 12.2448 46.1566 48.618 50.9726 59.5634C58.9446 77.6815 67.7419 95.3552 75.9806 113.331C83.4077 129.535 89.4458 146.701 101.614 160.221C129.005 190.655 132.601 135.022 149.129 137.088C154.715 137.786 157.622 149.115 159.132 153.343C163.025 164.244 163.345 188.595 173.512 195.857C190.861 208.249 190.125 185.229 197.269 185.229C200.909 185.229 204.456 197.413 205.397 199.608C207.921 205.497 216.604 237.12 222.903 237.12C231.054 237.12 230.746 210.066 237.907 212.112C242.257 213.355 250.579 234.955 252.912 239.621C262.832 259.46 276.011 295.382 300.427 300.265C316.495 303.479 314.572 280.847 318.558 270.881C319.242 269.172 324.893 259.356 326.686 260.253C334.732 264.276 333.969 283.33 344.191 285.886C349.361 287.178 354.507 308.045 361.322 309.018C367.321 309.875 370.715 297.534 377.952 294.639C382.579 292.788 383.068 283.2 387.33 282.135C388.746 281.781 389.034 284.119 389.206 284.635C391.609 291.845 395.262 299.444 400.459 304.642C405.332 309.515 404.883 300.388 408.212 298.39C413.176 295.412 421.315 281.613 425.093 284.635C429.958 288.527 436.833 325.052 440.098 330.275C449.732 345.691 460.483 308 470.107 323.398C476.522 333.662 484.491 391.647 496.74 396.546C506.795 400.568 509.16 365.911 520.498 365.911C533.98 365.911 534.102 390.719 539.879 398.422C546.441 407.171 550.762 388.859 556.134 391.545C565.41 396.182 559.071 417.667 571.139 419.679C577.905 420.806 586.735 408.391 588.645 410.301C596.313 417.969 594.92 435.573 604.9 441.561C614.445 447.288 618.438 429.057 626.157 429.057C636.967 429.057 629.627 455.574 643.662 451.564C648.863 450.078 656.34 434.77 662.418 437.809C668.105 440.653 673.25 462.87 674.922 468.444C678.231 479.473 695.736 509.03 706.808 513.459C737.431 525.708 727.534 489.913 746.82 482.199C752.781 479.815 755.282 487.159 757.449 490.951C763.645 501.795 769.678 517.004 779.956 524.712C793.419 534.81 801.893 511.203 808.09 515.334C809.326 516.158 809.767 518.682 810.591 519.711C827.921 541.374 821.844 580.98 853.104 590.358C855.153 590.973 864.019 623.833 863.733 624.119C861.067 626.785 822.226 625.156 819.344 624.744C807.742 623.087 796.255 619.486 784.332 618.492C739.093 614.722 693.461 611.362 648.039 609.74C611.332 608.429 569.987 642.618 533.252 641.625C498.262 640.679 482.611 639.593 427.594 637.248C372.576 634.904 352.952 638.915 314.432 637.874C270.317 636.681 220.488 637.42 176.263 638.499C133.346 639.545 100.632 613.782 57.8498 615.366C43.0702 615.914 19.4442 617.206 5.95819 609.114C0.713921 605.968 5.0607 580.174 5.33299 574.728C6.99955 541.397-0.202057 506.123-5.92061 473.446C-11.9903 438.762-3.55581 405.57-9.67181 370.913C-14.6572 342.663-14.5304 313.832-13.7978 285.261C-13.365 268.379-12.964 251.449-12.3824 234.526" fill="url(#LinearGradient_2)" fill-rule="nonzero" opacity="1" stroke="#3e68ff" stroke-linecap="butt" stroke-linejoin="round" stroke-width="8.69485"/>
</g>
</svg>
