<?xml version="1.0" encoding="UTF-8" standalone="no"?>
<!DOCTYPE svg PUBLIC "-//W3C//DTD SVG 1.1//EN" "http://www.w3.org/Graphics/SVG/1.1/DTD/svg11.dtd">
<!-- Created with Vectornator (http://vectornator.io/) -->
<svg height="100%" stroke-miterlimit="10" style="fill-rule:nonzero;clip-rule:evenodd;stroke-linecap:round;stroke-linejoin:round;" version="1.1" viewBox="0 0 841.995 595.35" width="100%" xml:space="preserve" xmlns="http://www.w3.org/2000/svg" xmlns:vectornator="http://vectornator.io" xmlns:xlink="http://www.w3.org/1999/xlink">
<defs>
<linearGradient gradientTransform="matrix(1 0 0 1 3.21232 66.7449)" gradientUnits="userSpaceOnUse" id="LinearGradient" x1="-5.7336" x2="899.855" y1="307.474" y2="307.474">
<stop offset="0" stop-color="#1c1c1f"/>
<stop offset="0" stop-color="#1c1c1f" stop-opacity="0.501463"/>
<stop offset="1" stop-color="#ff5349" stop-opacity="0.103604"/>
</linearGradient>
</defs>
<clipPath id="ArtboardFrame">
<rect height="595.35" width="841.995" x="0" y="0"/>
</clipPath>
<g clip-path="url(#ArtboardFrame)" id="레이어-2" vectornator:layerName="레이어 2">
<path d="M-2.52128 625.814L-11.4188 581.855C-11.4188 577.287 16.1198 570.491 19.8526 567.292C34.1123 555.069 47.8408 543.987 61.1552 530.673C65.4845 526.344 73.0359 519.219 79.8904 522.157C86.6785 525.066 87.6436 535.897 94.7935 537.486C107.35 540.276 117.904 528.059 128.006 523.008C136.693 518.665 137.916 527.899 142.057 525.137C144.828 523.29 146.551 519.792 148.87 517.473C154.236 512.107 160.818 508.356 165.476 502.144C177.894 485.587 189.29 468.09 210.611 461.693C219.817 458.931 230.796 471.857 237.437 477.022C245.824 483.546 265.898 485.975 276.184 484.261C284.611 482.856 288.309 471.035 296.197 467.654C302.166 465.096 310.144 468.345 315.784 465.525C321.789 462.523 323.32 451.074 329.835 449.771C337.59 448.22 344.02 450.486 351.125 445.513C361.345 438.359 368.891 428.027 378.377 419.965C394.731 406.064 414.44 393.93 433.305 383.772C440.75 379.763 456.146 370.002 465.24 372.275C478.219 375.52 463.988 398.668 486.104 393.139C488.562 392.525 491.073 391.293 493.343 390.159C501.953 385.853 511.084 377.953 516.762 370.146C523.058 361.489 528.336 349.669 538.478 344.598C548.921 339.376 563.632 352.258 575.522 350.559C581.71 349.675 590.424 345.717 595.109 341.617C598.303 338.823 602.177 332.506 606.606 331.398C610.982 330.304 611.488 338.647 621.083 332.25C624.739 329.813 626.417 314.541 627.47 310.96C632.263 294.664 639.725 279.438 645.779 263.696C647.455 259.338 648.673 252.286 652.166 248.793C660.554 240.405 675.21 269.751 689.211 266.251C694.644 264.893 695.643 257.925 700.282 255.606C705.41 253.041 718.457 247.637 720.72 241.98C723.031 236.203 720.091 229.998 726.256 225.374C735.099 218.741 751.618 218.102 759.042 209.194C769.284 196.903 774.294 178.792 779.906 164.059C786.218 147.491 793.664 131.335 800.771 115.092C802.336 111.514 815.19 84.8598 816.951 84.8598C820.884 84.8598 823.138 82.3449 827.596 81.4534C831.419 80.6888 834.924 83.6945 839.093 82.305C849.008 79 852.297 78.0687 862.446 78.0687C862.446 78.0687 838.262 660.936 871.839 669.455C905.415 677.974 903.03 624.197 903.03 624.197" fill="url(#LinearGradient)" fill-rule="nonzero" opacity="1" stroke="#ff5349" stroke-linecap="butt" stroke-linejoin="round" stroke-width="8.69485"/>
</g>
<g id="레이어-1" vectornator:layerName="레이어 1"/>
</svg>
